<svg width="1423" height="143" xmlns="http://www.w3.org/2000/svg"><g fill="none" fill-rule="evenodd"><g fill="#E9E9E9"><path d="M478.821 118.47h-11.957V93.43l4.089-.781a1.333 1.333 0 0 0 1.081-1.547 1.339 1.339 0 0 0-1.542-1.094l-9.932 1.702a86.335 86.335 0 0 0-.49-4.114c-1.226-8.94-3.304-12.896-6.54-12.896h-.151c-3.236 0-5.314 3.956-6.541 12.896a101.88 101.88 0 0 0-.686 6.689l-10.164 1.692a106.545 106.545 0 0 0-.797-8.354c-1.228-8.94-3.306-12.923-6.541-12.923h-.152c-3.236 0-5.315 3.956-6.54 12.896-.559 4.066-.81 8.11-.921 10.997l-9.68 1.609-37.172-55.597c-.327-.49-.916-.72-1.475-.548-.562.172-.925.68-.925 1.269v35.3c-.444-.008-.687.19-1.022.19-20.844 0-37.905 16.662-38.645 37.653h-7.196c.105 0 .212-.688.212-.86v-6.156c7.109-.249 7.123-6.92 7.123-9.142 0-.076-.02-7.423-1.021-14.715-1.227-8.94-3.316-12.896-6.551-12.896h-.152c-3.236 0-5.314 3.956-6.54 12.896-1.002 7.292-.993 14.742-.993 14.818 0 2.179.137 8.552 6.801 9.005v6.19c0 .172.027.86.133.86h-4.17c-.737 0-1.334.6-1.334 1.34 0 .74.597 1.34 1.333 1.34h13.254c.129 0 .263.07.405.07.143 0 .277-.07.406-.07H478.82c.736 0 1.333-.6 1.333-1.34 0-.74-.597-1.34-1.333-1.34zM320.633 87.961c1.44-10.487 3.653-10.582 3.9-10.582h.152c.247 0 2.46.095 3.9 10.582.976 7.112.987 14.377.987 14.452 0 4.62-1.348 6.393-4.803 6.422l-.061-.033c-.059-.008-.117-.025-.175-.025-3.562 0-4.887-1.653-4.887-6.359 0-.073.01-7.345.987-14.457zm128.225 5.756c.144-1.893.343-3.731.621-5.756 1.44-10.487 3.652-10.582 3.9-10.582h.151c.248 0 2.461.095 3.9 10.582a90.7 90.7 0 0 1 .492 4.303c.083.924.152 1.774.21 2.631.28 4.213.285 7.392.285 7.44 0 4.623-1.347 6.433-4.802 6.462l-.061-.015a1.436 1.436 0 0 0-.175-.014c-3.563 0-4.887-1.752-4.887-6.456 0-.042.003-2.46.188-5.847.047-.86.105-1.784.178-2.748zm-25.136 4.31c.12-2.778.367-6.353.876-10.066 1.439-10.487 3.652-10.582 3.9-10.582h.152c.247 0 2.46.095 3.9 10.582.414 3.022.654 5.984.793 8.52.055.992.095 1.851.123 2.646.068 1.953.07 3.178.07 3.209 0 4.622-1.348 6.432-4.802 6.46l-.062-.014a1.436 1.436 0 0 0-.174-.014c-3.563 0-4.888-1.752-4.888-6.456 0-.02.001-.592.023-1.55a133.4 133.4 0 0 1 .09-2.734zM374.451 49.72l34.044 50.925-3.635.622c-.027-.11-.047-.22-.104-.324-6.189-11.452-17.865-18.94-30.305-20.156V49.72zm-3.708 33.982c7.028 0 13.75 2.164 19.452 5.737h-38.86c5.604-3.573 12.264-5.737 19.408-5.737zm-21.35 7.077h42.736c2.408 1.786 4.598 4.02 6.516 6.252h-55.78c1.908-2.233 4.101-4.466 6.528-6.252zm-7.566 7.592h57.856c.882 1.34 1.693 2.46 2.431 3.778l-14.427 2.475h-49.564c1.028-2.233 2.27-4.466 3.704-6.253zm7.588 12.818c-.549.094-.96.581-1.075 1.028h-12.765c.466-2.233 1.12-4.467 1.953-6.253h42.348l-30.46 5.225zm-14.099 2.368h13.495c.231 0 .519.085.826.085.075 0 .15.099.226.086l1.596-.171h.777v4.912h-17.445c.064-1.786.244-3.573.525-4.912zm19.141-.921l11.108-1.906v7.74h-11.108v-5.834zm12.44-2.134l11.108-1.905v9.872h-11.107v-7.967zm12.44-2.134l11.108-1.906v12.007h-11.107v-10.1zm12.441-2.134l11.107-1.906v14.141h-11.107v-12.235zm12.44-2.134l11.108-1.905v16.274h-11.108V104.1zm12.44-2.134l4.32-.745c-.012.68-.005 1.072-.005 1.09 0 2.179.129 8.655 6.793 9.108v7.05h-11.107v-16.503zm12.44 9.487c7.11-.249 7.124-6.92 7.124-9.142 0-.033.007-1.474-.077-3.69l4.061-.695v20.543H429.1v-7.016zm12.441-13.755l4.468-.77c-.158 3.149-.154 5.342-.154 5.383 0 2.179.129 8.655 6.793 9.108v7.05H441.54V97.7zm12.44 13.755c7.109-.249 7.124-6.92 7.124-9.142 0-.051.002-3.471-.304-7.92l3.843-.733v24.811H453.98v-7.016z"/><path d="M631.737 120.852a1.32 1.32 0 1 0 0-2.64h-4.295v-1.738c1.322-.275 3.065-1.375 3.065-4.622 0-1.15-.123-4.055-.48-6.626-.407-2.944-1.213-6.374-3.623-6.374h-.067c-2.41 0-3.187 3.43-3.595 6.374-.355 2.571-.393 5.45-.393 6.601 0 3.656 2.008 4.619 3.77 4.717v1.668h-7.491v-1.738c1.322-.275 3.065-1.375 3.065-4.622 0-1.15-.123-4.055-.48-6.626-.407-2.944-1.212-6.374-3.623-6.374h-.066c-2.411 0-3.187 3.43-3.595 6.374-.356 2.571-.393 5.45-.393 6.601 0 3.656 2.007 4.619 3.77 4.717v1.668h-7.492v-1.738c1.322-.275 3.066-1.375 3.066-4.622 0-1.15-.124-4.055-.48-6.626-.407-2.944-1.213-6.374-3.623-6.374h-.067c-2.41 0-3.187 3.43-3.595 6.374-.356 2.571-.393 5.45-.393 6.601 0 3.656 2.008 4.619 3.77 4.717v1.668h-4.328c-2.39-3.08-16.41-23.706-16.494-109.566 1.78-.585 3.07-2.235 3.07-4.205 0-2.455-2.001-4.441-4.461-4.441-2.46 0-4.404 2.004-4.404 4.46 0 2.021 1.499 3.736 3.261 4.279v93.759l-1.762-1.563V24.222c0-.35-.193-.77-.442-1.018-.248-.247-.641-.472-.991-.472h-.002l-13.578.108c-.652.001-1.206.535-1.304 1.178l-8.459 55.042-53.78-47.661a1.231 1.231 0 0 0-1.362-.214c-.475.213-.726.688-.726 1.208v85.819h-6.17v-1.738c1.322-.275 3.066-1.375 3.066-4.622 0-1.15-.124-4.055-.48-6.626-.408-2.944-1.213-6.374-3.624-6.374h-.066c-2.411 0-3.187 3.43-3.595 6.374-.356 2.571-.393 5.45-.393 6.601 0 3.656 2.007 4.619 3.77 4.717v1.668h-7.491v-1.738c1.322-.275 3.065-1.375 3.065-4.622 0-1.15-.123-4.055-.48-6.626-.407-2.944-1.213-6.374-3.623-6.374h-.067c-2.41 0-3.187 3.43-3.595 6.374-.355 2.571-.393 5.45-.393 6.601 0 3.656 2.008 4.619 3.77 4.717v1.668h-7.602a1.32 1.32 0 0 0 0 2.64h152.915zm-145.095-7.04c-.871 0-1.4-.087-1.4-2.008 0-4.342.675-8.955 1.434-10.095.76 1.14 1.435 5.74 1.435 10.081 0 1.922-.53 2.022-1.402 2.022h-.067zm8.814 0c-.872 0-1.401-.087-1.401-2.008 0-4.342.676-8.955 1.434-10.095.76 1.14 1.435 5.74 1.435 10.081 0 1.922-.53 2.022-1.402 2.022h-.066zm16.565 4.4c.607-9.68 8.689-17.385 18.541-17.385 9.854 0 17.935 7.705 18.542 17.385h-37.083zm40.546 0h-.812c-.61-11-9.882-20.025-21.193-20.025-11.31 0-20.582 9.025-21.192 20.025h-3.996V35.329l52.804 46.801-5.611 36.082zm21.993 0h-19.318l1.15-7.48h18.168v7.48zm0-8.8h-17.966l.947-6.16h17.02v6.16zm0-12.76v5.28h-16.816l.947-6.16h15.87v.88zm0-3.529v1.329h-15.666l.947-6.16h14.72v4.831zm0-6.151h-14.516l.43-2.755.479-3.133.037-.272h13.57v6.16zm0-7.48h-13.367l.946-6.16h12.421v6.16zm0-7.48h-12.218l.947-6.16h11.271v6.16zm0-7.48h-11.067l.946-6.16h10.121v6.16zm0-7.48h-9.918l.947-6.16h8.971v6.16zm0-7.48h-8.768l.946-6.16h7.822v6.16zm0-7.48h-7.619l.947-6.16h6.672v6.16zm0-7.48h-6.469l1.464-9.099 5.005.041v9.058zm6.17 63.98v19.62h-4.848v-92.66l4.848-.008v73.048zm4.406 19.62h-1.762v-13.748l1.762 1.563v12.185zM586.28 6.28a1.818 1.818 0 0 1-1.817-1.814 1.817 1.817 0 0 1 3.634 0c0 1-.816 1.814-1.817 1.814zm12.777 108.552a37.734 37.734 0 0 0 1.86 3.379h-13.135V65.455c3.084 28.23 7.879 42.496 11.275 49.378zm9.654-1.021c-.872 0-1.4-.087-1.4-2.008 0-4.342.675-8.955 1.434-10.095.759 1.14 1.434 5.74 1.434 10.081 0 1.922-.529 2.022-1.401 2.022h-.067zm8.814 0c-.872 0-1.401-.087-1.401-2.008 0-4.342.675-8.955 1.434-10.095.76 1.14 1.435 5.74 1.435 10.081 0 1.922-.53 2.022-1.402 2.022h-.066zm8.813 0c-.871 0-1.401-.087-1.401-2.008 0-4.342.676-8.955 1.435-10.095.759 1.14 1.435 5.74 1.435 10.081 0 1.922-.53 2.022-1.402 2.022h-.067z"/><path d="M782.751 118.186h-9.175v-4.663c7.432-.172 7.605-7.229 7.605-9.568 0-.08-.011-7.862-1.068-15.557-1.29-9.383-3.46-13.57-6.823-13.57h-.16c-3.364 0-5.531 4.187-6.82 13.57-1.058 7.695-1.068 15.569-1.068 15.648 0 2.28.029 8.94 7.023 9.456v4.684h-8.306v-16.132c0-.727-.593-.948-1.317-.948h-2.824c-.336-6.132-1.805-15.767-7.796-15.767h-.16c-5.991 0-7.46 9.635-7.796 15.767h-7.21v-23.14c0-.065-.012-.126-.022-.19l2.947.567a1.313 1.313 0 0 0 1.533-1.043 1.315 1.315 0 0 0-1.041-1.538l-76.68-14.739a1.314 1.314 0 0 0-.492 2.581l2.064.397v21.776h-9.185c-.724 0-1.307.222-1.307.948v30.657c0 .154.027.804.076.804h-10.13v-4.095c3.934-.101 7.462-1.444 7.462-9.122 0-3.814-.805-9.535-2-14.24-1.647-6.48-3.611-9.63-6-9.63-2.39 0-4.353 3.15-6 9.63-1.195 4.705-1.998 10.426-1.998 14.24 0 7.52 3.29 8.964 7.225 9.115v4.102H632.81a1.313 1.313 0 0 0 0 2.628h149.94a1.313 1.313 0 1 0 0-2.628zm-13.843-29.43c1.164-8.475 3.001-11.3 4.221-11.3h.161c1.22 0 3.057 2.825 4.221 11.3 1.033 7.52 1.046 15.212 1.046 15.29 0 5.001-1.477 7.038-5.267 7.038-.015 0-.03.095-.045.095h-.137c-3.774 0-5.245-2.002-5.245-6.997 0-.077.012-7.907 1.045-15.426zM638.704 104.97c0-3.56.79-9.149 1.918-13.59 1.599-6.29 3.158-7.652 3.458-7.652.3 0 1.858 1.362 3.457 7.652 1.13 4.442 1.92 10.03 1.92 13.59 0 6.05-2.13 6.503-5.377 6.503s-5.376-.453-5.376-6.503zm107.998-4.046c.393-6.151 1.902-12.956 5.16-12.956h.16c3.259 0 4.767 6.805 5.16 12.956a48.936 48.936 0 0 1 .107 3.154c0 4.973-1.477 6.784-5.267 6.784-.02 0-.04-.12-.06-.12h-.13c-3.768 0-5.238-1.848-5.238-6.813 0-.218.002-.296.006-.52.012-.842.045-1.583.102-2.485zm-22.528 5.438h-1.306v-31.27l11.545 2.22c-.111.194-.18.416-.18.655v28.395h-10.06zm-2.618 0H708.88V72.403l12.677 2.437v31.521zm-13.988 0H694.89V69.714l12.677 2.437v34.21zm-13.989 0h-12.24V67.109l12.24 2.354v36.898zm-13.551-39.504v39.504h-12.24V64.505l12.24 2.352zm-22.732 36.438h7.869v2.628h-7.869v-2.628zm0-3.941h7.869v2.627h-7.869v-2.627zm0-3.942h7.869v2.628h-7.869v-2.628zm0 11.825h7.869v3.066h-7.869v-3.066zm0-15.766h7.869v2.627h-7.869v-2.627zm0 20.145h7.869v2.628h-7.869v-2.628zm0-23.211h7.869v1.752h-7.869v-1.752zm0 28.977v-1.824h7.869v2.628h-7.954c.049 0 .085-.65.085-.804zm58.14-4.89h2.186v5.694h-2.186v-5.694zm2.836-1.313h-3.497c-.362 0-.65-.072-.65.29v6.717h-46.337v-9.197h55.08v9.197h-3.935v-6.716c0-.363-.299-.291-.66-.291zm7.219-2.19h10.049c.723 0 1.316-.955 1.316-1.68v-3.576h7.12c-.003 0-.001.282-.001.482 0 2.301-.124 8.995 7.307 9.345v4.626h-25.791v-9.197zm27.102 4.564c7.432-.338 7.321-7.037 7.321-9.338 0-.2-.004-.482-.007-.482h1.43v14.453h-8.744v-4.633z"/><path d="M960.699 118.043h-5.29v-3.133h3.783c.747 0 1.35-.785 1.35-1.528a1.9 1.9 0 0 0-.081-.552l-4.692-19.59a1.37 1.37 0 0 0-1.314-1.056 1.34 1.34 0 0 0-1.313 1.02l-4.728 19.688c-.096.4-.003 1.002.254 1.325.256.322.646.693 1.06.693h4.33v3.133h-11.596l10.44-40.01c.026-.1.037-.292.04-.392l3.69-.96a1.368 1.368 0 0 0 .985-1.652 1.36 1.36 0 0 0-1.638-.99l-97.717 24.22a1.346 1.346 0 0 0-.613-.38L784.68 77.288a1.356 1.356 0 0 0-1.516.584 1.336 1.336 0 0 0 .146 1.61l18.708 20.55-3.087 12.856c-.096.4-.002 1.005.254 1.328.257.322.647.695 1.06.695h4.331v3.133H792.42v-3.133h3.783c.746 0 1.35-.785 1.35-1.528a1.9 1.9 0 0 0-.081-.552l-4.692-19.59a1.37 1.37 0 0 0-1.314-1.056 1.34 1.34 0 0 0-1.313 1.02l-4.728 19.688c-.096.4-.003 1.002.254 1.325.256.322.646.693 1.06.693h4.33v3.133h-8.217c-.747 0-1.351.602-1.351 1.343 0 .742.604 1.343 1.35 1.343H960.7c.746 0 1.35-.601 1.35-1.343 0-.741-.604-1.343-1.35-1.343zM791.465 99.657l3.017 12.567h-6.033l3.016-12.567zm138.416 16.666l-4.125-15.737h8.057l-3.932 15.737zm-4.477-17.08l-1.056-4.029h10.807l-1.006 4.029h-8.745zm-13.688 17.13l-4.138-15.787h8.277l-4.139 15.786zm-4.49-17.13l-1.056-4.029h11.092l-1.056 4.029h-8.98zm-11.328 17.13l-4.137-15.787h8.276l-4.139 15.786zm-4.49-17.13l-1.056-4.029h11.093l-1.056 4.029h-8.98zm-2.628-4.029h.177l1.056 4.029h-2.29l1.057-4.029zm14.06 0h1.934l1.056 4.029h-4.046l1.056-4.029zm17.966-8.191l.386 1.477h-.775l.389-1.477zm.738 2.82l1.056 4.029h-3.59l1.056-4.029h1.478zm18.107-1.343h-1.426l1.426-5.618V88.5zm0 1.343v4.029h-2.767l1.005-4.029h1.762zm-4.16 4.029h-11.495l-1.056-4.029h13.557l-1.006 4.029zm-17.877 0h-11.796l-1.052-4.012.072-.017h13.832l-1.056 4.029zm-13.807-2.347l.615 2.347h-1.23l.615-2.347zm14.85 3.69h4.295l1.056 4.028h-6.406l1.056-4.029zm17.89 0h3.104v4.028h-4.11l1.006-4.029zm13.508-16.935l-7.703 29.595V80.523c0-.108-.046-.21-.07-.31l7.773-1.933zm-11.466 3.01l-1.756 7.21h-14.245l-.753-2.964 16.754-4.245zm-18.958 4.886l-.609 2.324h-8.768l9.377-2.324zm-16.916 4.009l-.918 3.687H890l-.086-.423 12.8-3.264zm-19.545 5.03h4.214l-1.056 4.028h-8.98l-.636-2.428 6.458-1.6zm-1.331 21.157l-4.139-15.786h8.276l-4.137 15.786zm-6.151-18.142l.265 1.013h-.531l.266-1.013zm-1.168-.871l-.494 1.884h-7.106l7.6-1.884zm-4.984 19.013l-4.138-15.786h8.276l-4.138 15.786zm-10.912-.184l-3.71-14.062 6.589-1.54h1.258l-4.137 15.602zm-9.475-.183l-3.132-11.948 6.699-1.661-3.567 13.609zm-8.154-.002l-2.635-10.048 5.634-1.396-3 11.444zm-7.171 0l-2.198-8.378 4.7-1.165-2.502 9.544zm-4.934-1.407l-4.392-5.176 4.392-1.089v6.265zM804.973 99.29l1.3 5.599 1.717 7.336h-6.033l2.258-9.596.758-3.34zm.954 18.754v-3.133h3.782c.747 0 1.35-.785 1.35-1.528a1.9 1.9 0 0 0-.08-.552l-.935-3.752 8.037 8.965h-12.154zm15.797 0l-12.984-14.448-2.453-10.31c-.145-.605-.689-1.078-1.314-1.078-.626 0-1.169.404-1.314 1.007l-.881 3.66-14.305-15.72 64.906 18.312-35.288 8.747a1.343 1.343 0 1 0 .653 2.605l2.757-.683c.045.085.099.353.164.43l6.19 7.478h-6.13zm9.867 0v-5.665l1.275 5.665h-1.275zm3.19 0l2.628-10.025 2.628 10.025h-5.256zm7.17 0l3.12-11.902 3.12 11.902h-6.24zm8.156 0l3.78-14.42 3.779 14.42h-7.56zm9.473 0l4.5-17.163 4.499 17.163h-8.999zm10.913 0l4.577-17.457h1.235l4.576 17.457h-10.388zm12.304 0l4.575-17.457h2.993l4.576 17.457h-12.144zm14.059 0l4.575-17.457h4.751l4.576 17.457h-13.902zm15.818 0l4.575-17.457h7.11l4.577 17.457h-16.262zm22.531-17.457h4.446v17.457h-8.807l4.361-17.457zm19.25-.929l3.018 12.567h-6.034l3.016-12.567z"/><path d="M1115.726 118.016h-12.857v-7.988h2.656c.734 0 1.336-1.17 1.336-1.905v-4.309h3.986c.734 0 1.336-1.169 1.336-1.905V81.937c0-.735-.602-.758-1.336-.758h-4.073c.05 0 .087-.86.087-1.017v-3.55c0-.735-.602-.758-1.336-.758h-45.675V43.332a1.335 1.335 0 0 0-1.6-1.305l-55.42 11.294c-.611.124-1.055.943-1.066 1.566l-.036 2.326h-16.835c-.735 0-1.326.023-1.326.758v5.456h-4.44c-.734 0-1.326.023-1.326.758v9.764c0 .736.592 1.905 1.326 1.905h4.44v2.662h-4.44c-.734 0-1.326.024-1.326.759v9.764c0 .735.592 1.904 1.326 1.904h4.44v2.663h-4.44c-.734 0-1.326.023-1.326.758v9.764c0 .736.592 1.905 1.326 1.905h4.44v11.983h-13.305v-3.106h3.834c.734 0 1.33-.883 1.33-1.618 0-.161-.029-.456-.081-.598l-4.622-19.453c-.143-.6-.678-1.058-1.294-1.058s-1.151.404-1.294 1.004l-4.657 19.518c-.094.396-.003 1.097.25 1.417.252.319.637.788 1.044.788h4.16v3.106h-7.101a1.33 1.33 0 0 0 0 2.663h153.895a1.331 1.331 0 0 0 0-2.663zm-149.268-5.77l2.971-12.46 2.972 12.46h-5.943zm143.064-11.095h-7.233l2.436-4.438h4.797v4.438zm0-13.74v1.757h-.656l.656-1.757zm0 3.089v4.882h-4.066l2.68-4.882h1.386zm-7.102 4.882h-4.835l-2.68-4.882h10.194l-2.68 4.882zm-.731 1.331l-1.687 3.073-1.687-3.073h3.374zm-7.14-1.331h-10.697l2.68-4.882h5.336l2.68 4.882zm-18.568 0l-2.68-4.882h10.194l-2.679 4.882h-4.835zm4.104 1.331l-1.686 3.073-1.687-3.073h3.373zm-25.42-1.331l-2.68-4.882h10.196l-2.68 4.882h-4.835zm4.105 1.331l-1.686 3.073-1.688-3.073h3.374zm-11.339-6.213h1.519l2.68 4.882h-4.199V90.5zm17.787 0h5.047l2.68 4.882h-10.408l2.68-4.882zm2.524-4.599l1.793 3.267h-3.587l1.794-3.267zm19.52 3.267l1.939-3.53 1.937 3.53h-3.876zm-3.035 0h-11.656l-2.923-5.326h17.502l-2.923 5.326zm-21.316 0h-11.656l-2.924-5.326h17.504l-2.924 5.326zm-14.692 0h-.788V87.15l.788 2.018zm-.788 7.545h4.93l2.435 4.438h-7.365v-4.438zm14.375 0h11.87l2.436 4.438h-16.741l2.435-4.438zm21.315 0h12.158l2.436 4.438h-17.03l2.436-4.438zm25.633-12.87l-2.924 5.325h-11.656l-2.922-5.326h17.502zm-51.566-38.881v30.892h-10.644V47.319a.657.657 0 0 0-.028-.182l10.672-2.175zm-11.974 30.892h-4.44c-.735 0-1.326.023-1.326.758v32.972h-4.435V49.48l10.2-2.078v28.452zm-11.531 33.73h-9.314v-3.55h4.43c.735 0 1.336-1.17 1.336-1.906v-9.764c0-.735-.601-.758-1.336-.758h-4.43v-2.663h4.43c.735 0 1.336-1.169 1.336-1.904v-9.764c0-.735-.601-.759-1.336-.759h-4.43v-2.662h4.43c.735 0 1.336-1.17 1.336-1.905v-9.764c0-.735-.601-.758-1.336-.758h-4.43V57.97c0-.579-.443-1.066-.887-1.25v-4.89l10.2-2.08v59.833zm-47.455-13.315h35.48v7.101h-35.48v-7.1zm38.141 0h3.105v7.101h-3.105v-7.1zm-38.141-15.09h35.48v7.102h-35.48v-7.102zm38.141 0h3.105v7.102h-3.105v-7.102zm-38.141-15.09h35.48v7.102h-35.48V66.09zm38.141 0h3.105v7.102h-3.105V66.09zm-19.962-10.086l17.745-3.901v5.111h-17.763l.018-1.21zm-18.179 3.873h16.593c.062 0 .124.02.188.023.08 0 .156-.023.232-.023h18.467v3.55h-35.48v-3.55zm-5.765 6.214h3.104v7.1h-3.104v-7.1zm5.765 9.764h35.48v2.662h-35.48v-2.662zm-5.765 5.325h3.104v7.102h-3.104v-7.102zm5.765 9.764h35.48v2.663h-35.48v-2.663zm-5.765 5.326h3.104v7.101h-3.104v-7.1zm5.765 9.764h2.661v11.983h-2.661v-11.983zm3.992 0h2.66v11.983h-2.66v-11.983zm3.991 0h2.661v11.983h-2.66v-11.983zm3.992 0h2.66v11.983h-2.66v-11.983zm3.991 0h19.514v11.983h-19.514v-11.983zm22.175 6.214h15.08v5.77h-15.08v-5.77zm17.74-33.73h62.09v1.645c0 .157.027 1.017.077 1.017h-58.18c-.735 0-1.326.023-1.326.758v19.972c0 .736.591 1.905 1.326 1.905h10.583c.13 0 .264.07.405.07.14 0 .274-.07.404-.07h20.506c.13 0 .264.07.405.07.14 0 .274-.07.404-.07h20.795c.13 0 .264.07.404.07s.275-.07.405-.07h3.793v3.55h-35.64c-.206 0-.41-.238-.595-.145l-20.452 10.382c-.14.07-.258.415-.36.415h-5.044v-39.5zm26.766 31.51h5.167v7.99h-21.125l15.958-7.99zm6.497 0h7.54v7.99h-7.54v-7.99zm8.87 0h7.54v7.99h-7.54v-7.99zm8.87 0h7.096v7.99h-7.096v-7.99z"/></g><path fill="#E9E9E9" d="M83 120l112 23 45-21z"/><path fill="#FFF" d="M87 120l105 17 52-17z"/><path fill="#F5F5F5" d="M104 125L3 130l40-21z"/><path fill="#E9E9E9" d="M3 105l29 11-29 18z"/><path d="M1 115S.107 98 5 98c5.774 0 28 17 28 17L6 129l-5-14z" fill="#FFF"/><path fill="#E9E9E9" d="M1340 120l-112 23-45-21z"/><path fill="#FFF" d="M1336 120l-105 17-52-17z"/><path fill="#F5F5F5" d="M1319 125l101 5-40-21z"/><path fill="#E9E9E9" d="M1420 105l-29 11 29 18z"/><path d="M1422 115s.893-17-4-17c-5.774 0-28 17-28 17l27 14 5-14z" fill="#FFF"/></g></svg>