<?xml version="1.0" encoding="UTF-8"?>
<svg width="1423px" height="143px" viewBox="0 0 1423 143" version="1.1" xmlns="http://www.w3.org/2000/svg" xmlns:xlink="http://www.w3.org/1999/xlink">
    <!-- Generator: Sketch 48.2 (47327) - http://www.bohemiancoding.com/sketch -->
    <title>Group 5</title>
    <desc>Created with Sketch.</desc>
    <defs></defs>
    <g id="homepage" stroke="none" stroke-width="1" fill="none" fill-rule="evenodd" transform="translate(-7.000000, -1907.000000)">
        <g id="who-we-work-with" transform="translate(7.000000, 1907.000000)">
            <g id="Group-5">
                <g id="building-skyline" transform="translate(316.500000, 0.000000)" fill="#E9E9E9">
                    <path d="M162.321016,118.469403 L150.363746,118.469403 L150.363746,93.4297508 L154.453023,92.6490482 C155.179443,92.5244395 155.658391,91.8326155 155.534433,91.1023816 C155.410031,90.373041 154.714712,89.8821987 153.991846,90.0077007 L144.06011,91.7102399 C143.931709,90.2997943 143.770875,89.0465611 143.570943,87.5959191 C142.344249,78.6562486 140.265844,74.7000335 137.030054,74.7000335 L136.878995,74.7000335 C133.643205,74.7000335 131.5648,78.6562486 130.337662,87.5959191 C130.019548,89.9170356 129.801399,92.1604391 129.652117,94.2845934 L119.488015,95.9773068 C119.342287,93.4395766 119.099258,90.5999271 118.690508,87.6227167 C117.462925,78.6830462 115.38452,74.7000335 112.14962,74.7000335 L111.997671,74.7000335 C108.761882,74.7000335 106.683477,78.6562486 105.457227,87.5959191 C104.899194,91.6624509 104.648613,95.7053115 104.536651,98.59275 L94.8568288,100.201944 L57.6845707,44.604572 C57.3575707,44.1150697 56.7693261,43.8841639 56.2095163,44.0570083 C55.6479294,44.2289594 55.2849416,44.7363268 55.2849416,45.3258734 L55.2849416,80.6267635 C54.8406481,80.617831 54.5980639,80.8152398 54.2630666,80.8152398 C33.4185938,80.8152398 16.3581685,97.4779709 15.6179756,118.469403 L8.42175409,118.469403 C8.52749593,118.469403 8.63412637,117.781152 8.63412637,117.609648 L8.63412637,111.452905 C15.742822,111.204135 15.7570394,104.532432 15.7570394,102.310913 C15.7570394,102.234987 15.7361576,94.8884321 14.7356087,87.5959191 C13.5089144,78.6562486 11.4198465,74.7000335 8.18494566,74.7000335 L8.03299729,74.7000335 C4.79720789,74.7000335 2.718803,78.6562486 1.492553,87.5959191 C0.491115499,94.8884321 0.500001369,102.337711 0.500001369,102.413637 C0.500001369,104.592727 0.63684376,110.966083 7.30124593,111.419409 L7.30124593,117.609648 C7.30124593,117.781152 7.32834784,118.469403 7.43408968,118.469403 L3.26306251,118.469403 C2.52686822,118.469403 1.93018208,119.069669 1.93018208,119.809282 C1.93018208,120.549788 2.52686822,121.149161 3.26306251,121.149161 L16.5172256,121.149161 C16.6456264,121.149161 16.7802473,121.218834 16.9224212,121.218834 C17.0645951,121.218834 17.199216,121.149161 17.3276169,121.149161 L162.321016,121.149161 C163.056766,121.149161 163.653897,120.549788 163.653897,119.809282 C163.653897,119.069669 163.056766,118.469403 162.321016,118.469403 L162.321016,118.469403 Z M4.13343343,87.9621526 C5.57205572,77.4749222 7.78552583,77.3797909 8.03299729,77.3797909 L8.18494566,77.3797909 C8.43197284,77.3797909 10.6458872,77.4749222 12.0845095,87.9621526 C13.0606223,95.0742286 13.0721739,102.339497 13.0721739,102.413637 C13.0721739,107.034879 11.7237432,108.807092 8.26891713,108.836122 L8.20760463,108.802625 C8.14940218,108.794586 8.09119974,108.777614 8.03299729,108.777614 C4.47065218,108.777614 3.14576903,107.125097 3.14576903,102.419443 C3.14576903,102.346197 3.15687637,95.0742286 4.13343343,87.9621526 L4.13343343,87.9621526 Z M132.357864,93.7178248 C132.501815,91.8254694 132.700859,89.9867093 132.979431,87.9621526 C134.418053,77.4749222 136.630635,77.3797909 136.878995,77.3797909 L137.030054,77.3797909 C137.27797,77.3797909 139.490996,77.4749222 140.930507,87.9621526 C141.133549,89.4431652 141.293939,90.8299396 141.42234,92.2649497 C141.504978,93.1890193 141.574288,94.038949 141.631602,94.8964714 C141.91284,99.1086033 141.917283,102.288135 141.917283,102.336818 C141.917283,106.958506 140.56974,108.769129 137.114914,108.797713 L137.053602,108.782527 C136.995399,108.775381 136.937197,108.769129 136.878995,108.769129 C133.315761,108.769129 131.991766,107.017014 131.991766,102.3127 C131.991766,102.270717 131.995321,99.8526826 132.180147,96.4663625 C132.226798,95.6052672 132.285,94.6816441 132.357864,93.7178248 L132.357864,93.7178248 Z M107.222405,98.0286611 C107.34192,95.2501993 107.588503,91.675403 108.098107,87.9621526 C109.53673,77.4749222 111.7502,77.3797909 111.997671,77.3797909 L112.14962,77.3797909 C112.396647,77.3797909 114.610561,77.4749222 116.049183,87.9621526 C116.464154,90.983579 116.703628,93.9460508 116.843136,96.4815478 C116.897784,97.4735047 116.93777,98.3332602 116.965761,99.1278082 C117.034182,101.080905 117.036848,102.306447 117.036848,102.336818 C117.036848,106.958506 115.688417,108.769129 112.233591,108.797713 L112.172279,108.782527 C112.114076,108.775381 112.055874,108.769129 111.997671,108.769129 C108.435326,108.769129 107.110443,107.017014 107.110443,102.3127 C107.110443,102.292602 107.111332,101.72092 107.133102,100.763353 C107.148652,100.047858 107.176198,99.1157493 107.222405,98.0286611 L107.222405,98.0286611 Z M57.9507025,49.7197822 L91.9951345,100.644551 L88.3599253,101.266701 C88.3332677,101.156831 88.3128302,101.047854 88.2564049,100.942897 C82.0669525,89.4905075 70.3909198,82.0032655 57.9507025,80.7871023 L57.9507025,49.7197822 L57.9507025,49.7197822 Z M54.2430734,83.7022317 C61.2709076,83.7022317 67.9926237,85.8656891 73.6946862,89.4386989 L34.8345571,89.4386989 C40.4393193,85.8656891 47.0988342,83.7022317 54.2430734,83.7022317 L54.2430734,83.7022317 Z M32.8925503,90.7785776 L75.62914,90.7785776 C78.0372106,92.5650825 80.2271332,94.7982136 82.1451481,97.0313447 L26.3654348,97.0313447 C28.2727867,94.7982136 30.4662636,92.5650825 32.8925503,90.7785776 L32.8925503,90.7785776 Z M25.3266766,98.3712234 L83.183462,98.3712234 C84.0653845,99.7111021 84.8757758,100.831241 85.6141916,102.149235 L71.1866495,104.623991 L21.6230462,104.623991 C22.6511413,102.390859 23.892053,100.157728 25.3266766,98.3712234 L25.3266766,98.3712234 Z M32.9152092,111.188949 C32.3660625,111.283188 31.9546467,111.77001 31.840019,112.216636 L19.0750231,112.216636 C19.541087,109.983505 20.1955313,107.750374 21.0276929,105.963869 L63.3759701,105.963869 L32.9152092,111.188949 L32.9152092,111.188949 Z M18.8164443,113.556515 L32.3114144,113.556515 C32.5420027,113.556515 32.8299049,113.642267 33.137356,113.642267 C33.2119973,113.642267 33.2875272,113.740525 33.3630571,113.727573 L34.9594035,113.556515 L35.7360285,113.556515 L35.7360285,118.469403 L18.2908451,118.469403 C18.3548234,116.682899 18.5347622,114.896394 18.8164443,113.556515 L18.8164443,113.556515 Z M37.9574959,112.635572 L49.0648329,110.730264 L49.0648329,118.469403 L37.9574959,118.469403 L37.9574959,112.635572 L37.9574959,112.635572 Z M50.3977133,110.502038 L61.5050503,108.596731 L61.5050503,118.469403 L50.3977133,118.469403 L50.3977133,110.502038 L50.3977133,110.502038 Z M62.8379307,108.368058 L73.9452677,106.462304 L73.9452677,118.469403 L62.8379307,118.469403 L62.8379307,108.368058 L62.8379307,108.368058 Z M75.2781481,106.233631 L86.3854851,104.328324 L86.3854851,118.469403 L75.2781481,118.469403 L75.2781481,106.233631 L75.2781481,106.233631 Z M87.7183655,104.100098 L98.8257025,102.19479 L98.8257025,118.469403 L87.7183655,118.469403 L87.7183655,104.100098 L87.7183655,104.100098 Z M100.158583,101.966118 L104.478004,101.221145 C104.465564,101.90091 104.472673,102.293495 104.472673,102.310913 C104.472673,104.490003 104.601518,110.966083 111.26592,111.419409 L111.26592,118.469403 L100.158583,118.469403 L100.158583,101.966118 L100.158583,101.966118 Z M112.5988,111.452905 C119.707496,111.204135 119.721713,104.532432 119.721713,102.310913 C119.721713,102.277863 119.728822,100.8366 119.644851,98.6217807 L123.706137,97.9263837 L123.706137,118.469403 L112.5988,118.469403 L112.5988,111.452905 L112.5988,111.452905 Z M125.039018,97.6981577 L129.506833,96.9286207 C129.348664,100.076889 129.353107,102.269824 129.353107,102.310913 C129.353107,104.490003 129.481952,110.966083 136.146355,111.419409 L136.146355,118.469403 L125.039018,118.469403 L125.039018,97.6981577 L125.039018,97.6981577 Z M137.479235,111.452905 C144.587931,111.204135 144.603037,104.532432 144.603037,102.310913 C144.603037,102.259998 144.605258,98.8397343 144.298696,94.3917837 L148.142279,93.6584235 L148.142279,118.469403 L137.479235,118.469403 L137.479235,111.452905 L137.479235,111.452905 Z" id="Imported-Layers"></path>
                    <path d="M315.237288,120.85172 C315.967932,120.85172 316.559322,120.26124 316.559322,119.53172 C316.559322,118.80308 315.967932,118.21172 315.237288,118.21172 L310.941559,118.21172 L310.941559,116.47416 C312.263593,116.19916 314.006915,115.09916 314.006915,111.8524 C314.006915,110.7018 313.883525,107.79736 313.527017,105.226 C313.119831,102.2824 312.314271,98.85172 309.903763,98.85172 L309.83722,98.85172 C307.426271,98.85172 306.650237,102.2824 306.242169,105.226 C305.886542,107.79736 305.849085,110.67672 305.849085,111.82732 C305.849085,115.48328 307.856814,116.446 309.619525,116.54412 L309.619525,118.21172 L302.128,118.21172 L302.128,116.47416 C303.450034,116.19916 305.193356,115.09916 305.193356,111.8524 C305.193356,110.7018 305.069966,107.79736 304.713458,105.226 C304.306271,102.2824 303.500712,98.85172 301.090203,98.85172 L301.023661,98.85172 C298.612712,98.85172 297.836678,102.2824 297.42861,105.226 C297.072983,107.79736 297.035525,110.67672 297.035525,111.82732 C297.035525,115.48328 299.043254,116.446 300.805966,116.54412 L300.805966,118.21172 L293.314441,118.21172 L293.314441,116.47416 C294.636475,116.19916 296.379797,115.09916 296.379797,111.8524 C296.379797,110.7018 296.256407,107.79736 295.899898,105.226 C295.492712,102.2824 294.687153,98.85172 292.276644,98.85172 L292.210102,98.85172 C289.799153,98.85172 289.023119,102.2824 288.615051,105.226 C288.259424,107.79736 288.221966,110.67672 288.221966,111.82732 C288.221966,115.48328 290.229695,116.446 291.992407,116.54412 L291.992407,118.21172 L287.664068,118.21172 C285.274712,115.13172 271.25322,94.50628 271.170373,8.646 C272.950271,8.0608 274.239695,6.41124 274.239695,4.44092 C274.239695,1.98572 272.238576,0 269.778712,0 C267.318847,0 265.375017,2.00376 265.375017,4.45984 C265.375017,6.4812 266.873763,8.19632 268.636475,8.73884 L268.636475,102.49756 L266.873763,100.93512 L266.873763,24.222 C266.873763,23.87132 266.680746,23.45112 266.431763,23.20384 C266.184102,22.957 265.791017,22.73172 265.440678,22.73172 L265.438915,22.73172 L251.860746,22.8404 C251.208983,22.84128 250.65461,23.37456 250.55678,24.01828 L242.098407,79.06008 L188.318508,31.39884 C187.92939,31.05432 187.430102,30.97292 186.956373,31.185 C186.481322,31.3984 186.229695,31.87316 186.229695,32.39324 L186.229695,118.21172 L180.060203,118.21172 L180.060203,116.47416 C181.382237,116.19916 183.125559,115.09916 183.125559,111.8524 C183.125559,110.7018 183.002169,107.79736 182.645661,105.226 C182.238475,102.2824 181.432915,98.85172 179.022407,98.85172 L178.955864,98.85172 C176.544915,98.85172 175.768881,102.2824 175.360814,105.226 C175.005186,107.79736 174.967729,110.67672 174.967729,111.82732 C174.967729,115.48328 176.975458,116.446 178.738169,116.54412 L178.738169,118.21172 L171.246644,118.21172 L171.246644,116.47416 C172.568678,116.19916 174.312,115.09916 174.312,111.8524 C174.312,110.7018 174.18861,107.79736 173.832102,105.226 C173.424915,102.2824 172.619356,98.85172 170.208847,98.85172 L170.142305,98.85172 C167.731797,98.85172 166.955322,102.2824 166.547254,105.226 C166.191627,107.79736 166.154169,110.67672 166.154169,111.82732 C166.154169,115.48328 168.161898,116.446 169.92461,116.54412 L169.92461,118.21172 L162.322034,118.21172 C161.592271,118.21172 161,118.80308 161,119.53172 C161,120.26124 161.592271,120.85172 162.322034,120.85172 L315.237288,120.85172 L315.237288,120.85172 Z M170.142305,113.81172 C169.270644,113.81172 168.74139,113.72504 168.74139,111.80356 C168.74139,107.46208 169.416949,102.84868 170.175797,101.70908 C170.935085,102.84868 171.610644,107.44888 171.610644,111.79036 C171.610644,113.71184 171.08139,113.81172 170.208847,113.81172 L170.142305,113.81172 L170.142305,113.81172 Z M178.955864,113.81172 C178.084203,113.81172 177.554508,113.72504 177.554508,111.80356 C177.554508,107.46208 178.230508,102.84868 178.989356,101.70908 C179.748644,102.84868 180.424203,107.44888 180.424203,111.79036 C180.424203,113.71184 179.894949,113.81172 179.022407,113.81172 L178.955864,113.81172 L178.955864,113.81172 Z M195.520949,118.21172 C196.127763,108.53172 204.209797,100.82732 214.062034,100.82732 C223.915593,100.82732 231.997186,108.53172 232.604,118.21172 L195.520949,118.21172 L195.520949,118.21172 Z M236.066847,118.21172 L235.255119,118.21172 C234.64478,107.21172 225.373356,98.18732 214.062034,98.18732 C202.751593,98.18732 193.480169,107.21172 192.869831,118.21172 L188.873763,118.21172 L188.873763,35.32936 L241.678,82.1304 L236.066847,118.21172 L236.066847,118.21172 Z M258.060203,118.21172 L238.741763,118.21172 L239.891492,110.73172 L258.060203,110.73172 L258.060203,118.21172 L258.060203,118.21172 Z M258.060203,109.41172 L240.094203,109.41172 L241.04078,103.25172 L258.060203,103.25172 L258.060203,109.41172 L258.060203,109.41172 Z M258.060203,96.6526 L258.060203,101.93172 L241.243932,101.93172 L242.190508,95.77172 L258.060203,95.77172 L258.060203,96.6526 L258.060203,96.6526 Z M258.060203,93.12336 L258.060203,94.45172 L242.393661,94.45172 L243.340678,88.29172 L258.060203,88.29172 L258.060203,93.12336 L258.060203,93.12336 Z M258.060203,86.97172 L243.543831,86.97172 L243.974814,84.21688 L244.452508,81.08408 L244.490407,80.81172 L258.060203,80.81172 L258.060203,86.97172 L258.060203,86.97172 Z M258.060203,79.49172 L244.692678,79.49172 L245.639254,73.33172 L258.060203,73.33172 L258.060203,79.49172 L258.060203,79.49172 Z M258.060203,72.01172 L245.842407,72.01172 L246.789424,65.85172 L258.060203,65.85172 L258.060203,72.01172 L258.060203,72.01172 Z M258.060203,64.53172 L246.992576,64.53172 L247.939153,58.37172 L258.060203,58.37172 L258.060203,64.53172 L258.060203,64.53172 Z M258.060203,57.05172 L248.142305,57.05172 L249.089322,50.89172 L258.060203,50.89172 L258.060203,57.05172 L258.060203,57.05172 Z M258.060203,49.57172 L249.291593,49.57172 L250.238169,43.41172 L258.060203,43.41172 L258.060203,49.57172 L258.060203,49.57172 Z M258.060203,42.09172 L250.441322,42.09172 L251.387898,35.93172 L258.060203,35.93172 L258.060203,42.09172 L258.060203,42.09172 Z M258.060203,34.61172 L251.591051,34.61172 L253.054983,25.51296 L258.060203,25.55432 L258.060203,34.61172 L258.060203,34.61172 Z M264.229695,98.59168 L264.229695,118.21172 L259.382237,118.21172 L259.382237,25.55168 L264.229695,25.54376 L264.229695,98.59168 L264.229695,98.59168 Z M268.636475,118.21172 L266.873763,118.21172 L266.873763,104.46436 L268.636475,106.0268 L268.636475,118.21172 L268.636475,118.21172 Z M269.778712,6.281 C268.77661,6.281 267.961797,5.467 267.961797,4.46688 C267.961797,3.46632 268.77661,2.65276 269.778712,2.65276 C270.780373,2.65276 271.595627,3.46632 271.595627,4.46688 C271.595627,5.467 270.780373,6.281 269.778712,6.281 L269.778712,6.281 Z M282.556169,114.83296 C283.274915,116.28936 283.867186,117.33172 284.416712,118.21172 L271.280542,118.21172 L271.280542,65.45484 C274.365288,93.68436 279.159864,107.95092 282.556169,114.83296 L282.556169,114.83296 Z M292.210102,113.81172 C291.338441,113.81172 290.809186,113.72504 290.809186,111.80356 C290.809186,107.46208 291.484746,102.84868 292.243593,101.70908 C293.002881,102.84868 293.678441,107.44888 293.678441,111.79036 C293.678441,113.71184 293.149186,113.81172 292.276644,113.81172 L292.210102,113.81172 L292.210102,113.81172 Z M301.023661,113.81172 C300.152,113.81172 299.622746,113.72504 299.622746,111.80356 C299.622746,107.46208 300.298305,102.84868 301.057153,101.70908 C301.816441,102.84868 302.492,107.44888 302.492,111.79036 C302.492,113.71184 301.962746,113.81172 301.090203,113.81172 L301.023661,113.81172 L301.023661,113.81172 Z M309.83722,113.81172 C308.965559,113.81172 308.435864,113.72504 308.435864,111.80356 C308.435864,107.46208 309.111864,102.84868 309.870712,101.70908 C310.63,102.84868 311.305559,107.44888 311.305559,111.79036 C311.305559,113.71184 310.776305,113.81172 309.903763,113.81172 L309.83722,113.81172 L309.83722,113.81172 Z" id="Imported-Layers"></path>
                    <path d="M466.250991,118.185841 L457.076237,118.185841 L457.076237,113.52336 C464.507666,113.351243 464.681211,106.294454 464.681211,103.954892 C464.681211,103.875622 464.669846,96.0931406 463.612834,88.3982501 C462.3237,79.0154764 460.153286,74.8281771 456.790346,74.8281771 L456.629477,74.8281771 C453.265663,74.8281771 451.098746,79.0154764 449.809611,88.3982501 C448.751726,96.0931406 448.742109,103.966717 448.742109,104.046425 C448.742109,106.325111 448.770523,112.986863 455.764809,113.5019 L455.764809,118.185841 L447.459094,118.185841 L447.459094,102.053725 C447.459094,101.327155 446.866329,101.105549 446.14242,101.105549 L443.31804,101.105549 C442.981877,94.9741625 441.513077,85.339126 435.522034,85.339126 L435.361603,85.339126 C429.37056,85.339126 427.902197,94.9741625 427.566471,101.105549 L420.356237,101.105549 L420.356237,77.9661333 C420.356237,77.9008779 420.343997,77.839564 420.33438,77.7769362 L423.280723,78.3432136 C423.364217,78.359418 423.445089,78.3673012 423.527271,78.3673012 C424.143643,78.3673012 424.693569,77.929345 424.813783,77.3004399 C424.950609,76.5878852 424.483303,75.899418 423.772509,75.7623377 L347.092406,61.0233596 C346.381174,60.8880311 345.693986,61.3544545 345.55716,62.0661333 C345.421646,62.7786881 345.889826,63.4671552 346.601057,63.6042355 L348.664809,64.0010238 L348.664809,85.7770822 L339.48,85.7770822 C338.755654,85.7770822 338.17338,85.9986881 338.17338,86.7252574 L338.17338,117.382192 C338.17338,117.535914 338.200046,118.185841 338.248569,118.185841 L328.119094,118.185841 L328.119094,114.091389 C332.05338,113.989783 335.580686,112.647447 335.580686,104.968761 C335.580686,101.155476 334.776343,95.4335786 333.58032,90.7299289 C331.933603,84.249491 329.969957,81.099272 327.580971,81.099272 C325.191549,81.099272 323.22834,84.249491 321.580749,90.7299289 C320.3856,95.4335786 319.583443,101.155476 319.583443,104.968761 C319.583443,112.489345 322.87338,113.933287 326.807666,114.084382 L326.807666,118.185841 L316.311429,118.185841 C315.58752,118.185841 315,118.774454 315,119.49971 C315,120.225841 315.58752,120.813579 316.311429,120.813579 L466.250991,120.813579 C466.9749,120.813579 467.56242,120.225841 467.56242,119.49971 C467.56242,118.774454 466.9749,118.185841 466.250991,118.185841 L466.250991,118.185841 Z M452.407551,88.7564983 C453.5721,80.2807319 455.409411,77.4559143 456.629477,77.4559143 L456.790346,77.4559143 C458.009537,77.4559143 459.846849,80.2807319 461.011397,88.7564983 C462.044366,96.2753304 462.056606,103.968469 462.056606,104.046425 C462.056606,109.047009 460.580374,111.083944 456.790346,111.083944 C456.774609,111.083944 456.759309,111.178542 456.744883,111.178542 L456.60762,111.178542 C452.833766,111.178542 451.36278,109.177082 451.36278,104.182192 C451.36278,104.104673 451.374583,96.2753304 452.407551,88.7564983 L452.407551,88.7564983 Z M322.204114,104.968761 C322.204114,101.409491 322.993157,95.8202939 324.12186,91.3785421 C325.720929,85.0886151 327.280217,83.7270092 327.57966,83.7270092 C327.880414,83.7270092 329.438391,85.0886151 331.03746,91.3785421 C332.167037,95.8211698 332.95608,101.409491 332.95608,104.968761 C332.95608,111.018688 330.827631,111.471535 327.57966,111.471535 C324.332563,111.471535 322.204114,111.018688 322.204114,104.968761 L322.204114,104.968761 Z M430.202006,100.922922 C430.594997,94.7718268 432.103577,87.9668633 435.361603,87.9668633 L435.522034,87.9668633 C438.780934,87.9668633 440.289077,94.7718268 440.681631,100.922922 C440.738897,101.825111 440.772994,102.616936 440.783923,103.458688 C440.78742,103.682922 440.789169,103.85898 440.789169,104.077082 C440.789169,109.050075 439.312063,110.860586 435.522034,110.860586 C435.502363,110.860586 435.482254,110.740586 435.462583,110.740586 L435.332751,110.740586 C431.564143,110.740586 430.094469,108.893287 430.094469,103.927739 C430.094469,103.709637 430.096217,103.631681 430.099714,103.407447 C430.111517,102.565695 430.145177,101.825111 430.202006,100.922922 L430.202006,100.922922 Z M407.673849,106.361024 L406.367666,106.361024 L406.367666,75.0918268 L417.913483,77.3113888 C417.801574,77.5049654 417.73338,77.7265713 417.73338,77.9661333 L417.73338,106.361024 L407.673849,106.361024 L407.673849,106.361024 Z M405.056237,106.361024 L392.379094,106.361024 L392.379094,72.4032136 L405.056237,74.839564 L405.056237,106.361024 L405.056237,106.361024 Z M391.067666,106.361024 L378.390523,106.361024 L378.390523,69.7141625 L391.067666,72.1509508 L391.067666,106.361024 L391.067666,106.361024 Z M377.079094,106.361024 L364.839094,106.361024 L364.839094,67.109199 L377.079094,69.4627757 L377.079094,106.361024 L377.079094,106.361024 Z M363.527666,66.8569362 L363.527666,106.361024 L351.287666,106.361024 L351.287666,64.5046735 L363.527666,66.8569362 L363.527666,66.8569362 Z M340.796237,103.29533 L348.664809,103.29533 L348.664809,105.923068 L340.796237,105.923068 L340.796237,103.29533 Z M340.796237,99.3537246 L348.664809,99.3537246 L348.664809,101.981462 L340.796237,101.981462 L340.796237,99.3537246 Z M340.796237,95.4121187 L348.664809,95.4121187 L348.664809,98.039856 L340.796237,98.039856 L340.796237,95.4121187 Z M340.796237,107.236936 L348.664809,107.236936 L348.664809,110.30263 L340.796237,110.30263 L340.796237,107.236936 Z M340.796237,91.4705129 L348.664809,91.4705129 L348.664809,94.0982501 L340.796237,94.0982501 L340.796237,91.4705129 Z M340.796237,111.616498 L348.664809,111.616498 L348.664809,114.244236 L340.796237,114.244236 L340.796237,111.616498 Z M340.796237,88.4048195 L348.664809,88.4048195 L348.664809,90.1566443 L340.796237,90.1566443 L340.796237,88.4048195 Z M340.796237,117.382192 L340.796237,115.558104 L348.664809,115.558104 L348.664809,118.185841 L340.710994,118.185841 C340.759954,118.185841 340.796237,117.535914 340.796237,117.382192 L340.796237,117.382192 Z M398.936237,112.492411 L401.121951,112.492411 L401.121951,118.185841 L398.936237,118.185841 L398.936237,112.492411 Z M401.77242,111.178542 L398.275277,111.178542 C397.913323,111.178542 397.624809,111.106717 397.624809,111.469783 L397.624809,118.185841 L351.287666,118.185841 L351.287666,108.988761 L406.367666,108.988761 L406.367666,118.185841 L402.43338,118.185841 L402.43338,111.469783 C402.43338,111.106717 402.134374,111.178542 401.77242,111.178542 L401.77242,111.178542 Z M408.990523,108.988761 L419.039563,108.988761 C419.763471,108.988761 420.356237,108.034454 420.356237,107.309199 L420.356237,103.733287 L427.476857,103.733287 C427.47336,103.733287 427.474671,104.014892 427.474671,104.215038 C427.474671,106.51606 427.350523,113.210221 434.781951,113.560148 L434.781951,118.185841 L408.990523,118.185841 L408.990523,108.988761 L408.990523,108.988761 Z M436.09338,113.553141 C443.524809,113.2146 443.414211,106.51606 443.414211,104.215038 C443.414211,104.014892 443.410277,103.733287 443.40678,103.733287 L444.836237,103.733287 L444.836237,118.185841 L436.09338,118.185841 L436.09338,113.553141 L436.09338,113.553141 Z" id="Imported-Layers"></path>
                    <path d="M644.199005,118.043001 L638.909483,118.043001 L638.909483,114.909668 L642.683017,114.909668 L642.692022,114.909668 C643.438535,114.909668 644.042769,114.124544 644.042769,113.382392 C644.042769,113.220801 644.014403,112.973716 643.960823,112.83003 L639.269231,93.2390871 C639.124251,92.6339062 638.580801,92.1836014 637.955405,92.1836014 C637.33001,92.1836014 636.78656,92.5989919 636.64158,93.2032776 L631.913968,112.892249 C631.818065,113.291973 631.911266,113.894468 632.167908,114.217201 C632.4241,114.539039 632.814465,114.909668 633.227794,114.909668 L637.558736,114.909668 L637.558736,118.043001 L625.962129,118.043001 L636.401597,78.0334681 C636.427711,77.9332014 636.439418,77.7411728 636.442119,77.6413538 L640.132808,76.6816585 C640.857259,76.5012681 641.297152,75.7488204 641.116602,75.029049 C640.935602,74.3097252 640.202147,73.8603157 639.479498,74.0393633 L541.76201,98.2591347 C541.59947,98.0868014 541.393706,97.9484871 541.149221,97.8795538 L468.180107,77.2872871 C467.601988,77.1239062 466.981995,77.3615919 466.663669,77.8705347 C466.345343,78.3794776 466.405226,79.0356871 466.81,79.4801728 L485.517836,100.030363 L482.431381,112.886878 C482.335478,113.286601 482.428679,113.89223 482.685321,114.214516 C482.941512,114.537249 483.331878,114.909668 483.745206,114.909668 L488.076149,114.909668 L488.076149,118.043001 L475.919433,118.043001 L475.919433,114.909668 L479.692968,114.909668 L479.701522,114.909668 C480.448485,114.909668 481.052269,114.124544 481.052269,113.382392 C481.052269,113.220801 481.024353,112.973716 480.970774,112.83003 L476.279182,93.2390871 C476.134201,92.6339062 475.590751,92.1836014 474.965356,92.1836014 C474.33996,92.1836014 473.79651,92.5989919 473.65153,93.2032776 L468.923918,112.892249 C468.828015,113.291973 468.921216,113.894468 469.177858,114.217201 C469.43405,114.539039 469.824415,114.909668 470.237744,114.909668 L474.568687,114.909668 L474.568687,118.043001 L466.350746,118.043001 C465.604234,118.043001 465,118.644601 465,119.385859 C465,120.128011 465.604234,120.728716 466.350746,120.728716 L644.199005,120.728716 C644.944617,120.728716 645.549751,120.128011 645.549751,119.385859 C645.549751,118.644601 644.944617,118.043001 644.199005,118.043001 L644.199005,118.043001 Z M474.965356,99.6574966 L477.982473,112.223954 L471.949139,112.223954 L474.965356,99.6574966 L474.965356,99.6574966 Z M613.380828,116.323249 L609.255649,100.585859 L617.313301,100.585859 L613.380828,116.323249 L613.380828,116.323249 Z M608.903555,99.2430014 L607.847721,95.21443 L618.655493,95.21443 L617.649187,99.2430014 L608.903555,99.2430014 L608.903555,99.2430014 Z M595.215993,116.372487 L591.077756,100.585859 L599.354679,100.585859 L595.215993,116.372487 L595.215993,116.372487 Z M590.725662,99.2430014 L589.669828,95.21443 L600.762157,95.21443 L599.706323,99.2430014 L590.725662,99.2430014 L590.725662,99.2430014 Z M579.398303,116.372487 L575.260968,100.585859 L583.53699,100.585859 L579.398303,116.372487 L579.398303,116.372487 Z M574.908423,99.2430014 L573.852139,95.21443 L584.944918,95.21443 L583.888634,99.2430014 L574.908423,99.2430014 L574.908423,99.2430014 Z M572.279871,95.21443 L572.457269,95.21443 L573.512652,99.2430014 L571.223587,99.2430014 L572.279871,95.21443 L572.279871,95.21443 Z M586.340239,95.21443 L588.274057,95.21443 L589.330341,99.2430014 L585.283955,99.2430014 L586.340239,95.21443 L586.340239,95.21443 Z M604.305614,87.0225538 L604.692378,88.5001442 L603.9175,88.5001442 L604.305614,87.0225538 L604.305614,87.0225538 Z M605.044022,89.8430014 L606.100306,93.8715728 L602.509572,93.8715728 L603.565856,89.8430014 L605.044022,89.8430014 L605.044022,89.8430014 Z M623.150776,88.5001442 L621.725289,88.5001442 L623.150776,82.88163 L623.150776,88.5001442 L623.150776,88.5001442 Z M623.150776,89.8430014 L623.150776,93.8715728 L620.383547,93.8715728 L621.389403,89.8430014 L623.150776,89.8430014 L623.150776,89.8430014 Z M618.991378,93.8715728 L607.496077,93.8715728 L606.439794,89.8430014 L619.997234,89.8430014 L618.991378,93.8715728 L618.991378,93.8715728 Z M601.114251,93.8715728 L589.317734,93.8715728 L588.266403,89.8604585 L588.337542,89.8430014 L602.170085,89.8430014 L601.114251,93.8715728 L601.114251,93.8715728 Z M587.306923,91.5251538 L587.922413,93.8715728 L586.691883,93.8715728 L587.306923,91.5251538 L587.306923,91.5251538 Z M602.157928,95.21443 L606.45195,95.21443 L607.508234,99.2430014 L601.101644,99.2430014 L602.157928,95.21443 L602.157928,95.21443 Z M620.047211,95.21443 L623.150776,95.21443 L623.150776,99.2430014 L619.041356,99.2430014 L620.047211,95.21443 L620.047211,95.21443 Z M633.555124,78.2796585 L625.852269,107.874887 L625.852269,80.5231252 C625.852269,80.415249 625.806343,80.3131919 625.78293,80.2124776 L633.555124,78.2796585 L633.555124,78.2796585 Z M622.088639,81.2907919 L620.333119,88.5001442 L606.088149,88.5001442 L605.335333,85.5355633 L622.088639,81.2907919 L622.088639,81.2907919 Z M603.131366,86.1756585 L602.522179,88.5001442 L593.753585,88.5001442 L603.131366,86.1756585 L603.131366,86.1756585 Z M586.214619,90.1849823 L585.296562,93.8715728 L573.500495,93.8715728 L573.414047,93.4494681 L586.214619,90.1849823 L586.214619,90.1849823 Z M566.670221,95.21443 L570.8841,95.21443 L569.827816,99.2430014 L560.848505,99.2430014 L560.211853,96.8151157 L566.670221,95.21443 L566.670221,95.21443 Z M565.338836,116.372487 L561.200149,100.585859 L569.476172,100.585859 L565.338836,116.372487 L565.338836,116.372487 Z M559.187537,98.2295919 L559.452734,99.2430014 L558.921891,99.2430014 L559.187537,98.2295919 L559.187537,98.2295919 Z M558.020493,97.3589728 L557.526119,99.2430014 L550.419843,99.2430014 L558.020493,97.3589728 L558.020493,97.3589728 Z M553.035789,116.372487 L548.897552,100.585859 L557.174475,100.585859 L553.035789,116.372487 L553.035789,116.372487 Z M542.12356,116.18762 L538.41351,102.126116 L545.0029,100.585859 L546.261346,100.585859 L542.12356,116.18762 L542.12356,116.18762 Z M532.648975,116.004544 L529.517495,104.057144 L536.215846,102.39603 L532.648975,116.004544 L532.648975,116.004544 Z M524.49452,116.002754 L521.859664,105.955049 L527.494077,104.558925 L524.49452,116.002754 L524.49452,116.002754 Z M517.323858,116.003649 L515.126194,107.625116 L519.825891,106.459516 L517.323858,116.003649 L517.323858,116.003649 Z M512.389582,114.596335 L507.997856,109.41962 L512.389582,108.331459 L512.389582,114.596335 L512.389582,114.596335 Z M488.472818,99.2886585 L489.772687,104.887925 L491.489935,112.223954 L485.456602,112.223954 L487.7155,102.627897 L488.472818,99.2886585 L488.472818,99.2886585 Z M489.426896,118.043001 L489.426896,114.909668 L493.20043,114.909668 L493.208985,114.909668 C493.955948,114.909668 494.559731,114.124544 494.559731,113.382392 C494.559731,113.220801 494.531816,112.973716 494.478236,112.83003 L493.54442,109.077639 L501.58091,118.043001 L489.426896,118.043001 L489.426896,118.043001 Z M505.224323,118.043001 L492.24005,103.595201 L489.786644,93.2842966 C489.641664,92.6795633 489.098214,92.2073252 488.472818,92.2073252 C487.847423,92.2073252 487.303973,92.61063 487.158993,93.2144681 L486.277856,96.8742014 L471.972552,81.1542681 L536.879062,99.4663633 L501.590816,108.213287 C500.866816,108.392335 500.426473,109.121506 500.606572,109.841278 C500.759657,110.451382 501.310311,110.859611 501.915896,110.859611 C502.024405,110.859611 502.134266,110.845735 502.244127,110.81843 L505.001,110.134916 C505.046475,110.220411 505.099604,110.487639 505.165341,110.56463 L511.35446,118.043001 L505.224323,118.043001 L505.224323,118.043001 Z M515.091075,118.043001 L515.091075,112.378382 L516.366179,118.043001 L515.091075,118.043001 L515.091075,118.043001 Z M518.280637,118.043001 L520.909189,108.017678 L523.536841,118.043001 L518.280637,118.043001 L518.280637,118.043001 Z M525.451299,118.043001 L528.571522,106.140811 L531.691296,118.043001 L525.451299,118.043001 L525.451299,118.043001 Z M533.606654,118.043001 L537.386493,103.623849 L541.165881,118.043001 L533.606654,118.043001 L533.606654,118.043001 Z M543.080338,118.043001 L547.579224,100.880392 L552.07856,118.043001 L543.080338,118.043001 L543.080338,118.043001 Z M553.993468,118.043001 L558.569796,100.585859 L559.804828,100.585859 L564.381157,118.043001 L553.993468,118.043001 L553.993468,118.043001 Z M566.296515,118.043001 L570.871943,100.585859 L573.865197,100.585859 L578.440624,118.043001 L566.296515,118.043001 L566.296515,118.043001 Z M580.355983,118.043001 L584.93141,100.585859 L589.681985,100.585859 L594.258313,118.043001 L580.355983,118.043001 L580.355983,118.043001 Z M596.173672,118.043001 L600.7491,100.585859 L607.859878,100.585859 L612.436206,118.043001 L596.173672,118.043001 L596.173672,118.043001 Z M618.70547,100.585859 L623.150776,100.585859 L623.150776,118.043001 L614.34391,118.043001 L618.70547,100.585859 L618.70547,100.585859 Z M637.955405,99.6574966 L640.972522,112.223954 L634.939189,112.223954 L637.955405,99.6574966 L637.955405,99.6574966 Z" id="Imported-Layers"></path>
                    <path d="M799.225545,118.016488 L786.369285,118.016488 L786.369285,110.027724 L789.02498,110.027724 C789.759421,110.027724 790.360811,108.858702 790.360811,108.122848 L790.360811,103.814241 L794.347014,103.814241 C795.081455,103.814241 795.682845,102.645218 795.682845,101.909364 L795.682845,81.9374543 C795.682845,81.2024881 795.081455,81.1794094 794.347014,81.1794094 L790.274328,81.1794094 C790.323556,81.1794094 790.360811,80.3192858 790.360811,80.1621734 L790.360811,76.6116116 C790.360811,75.8766454 789.759421,75.8535667 789.02498,75.8535667 L743.349511,75.8535667 L743.349511,43.3321959 C743.349511,42.9323139 743.167232,42.5537352 742.857223,42.3003139 C742.547658,42.048224 742.14274,41.9461454 741.750684,42.0273645 L686.32924,53.3208139 C685.718537,53.4446397 685.275034,54.2639319 685.26439,54.8874993 L685.227579,57.2131173 L668.392655,57.2131173 C667.658215,57.2131173 667.067025,57.2361959 667.067025,57.9711622 L667.067025,63.4266004 L662.627119,63.4266004 C661.892678,63.4266004 661.301489,63.4496791 661.301489,64.1846454 L661.301489,73.9486903 C661.301489,74.6845442 661.892678,75.8535667 662.627119,75.8535667 L667.067025,75.8535667 L667.067025,78.5164881 L662.627119,78.5164881 C661.892678,78.5164881 661.301489,78.5395667 661.301489,79.274533 L661.301489,89.0385779 C661.301489,89.7744319 661.892678,90.9434543 662.627119,90.9434543 L667.067025,90.9434543 L667.067025,93.6063757 L662.627119,93.6063757 C661.892678,93.6063757 661.301489,93.6294543 661.301489,94.3644206 L661.301489,104.128466 C661.301489,104.86432 661.892678,106.033342 662.627119,106.033342 L667.067025,106.033342 L667.067025,118.016488 L653.761941,118.016488 L653.761941,114.909746 L657.585822,114.909746 L657.595136,114.909746 C658.329576,114.909746 658.925644,114.027432 658.925644,113.291578 C658.925644,113.130915 658.89726,112.835775 658.844927,112.693752 L654.223184,93.2411116 C654.079932,92.6410667 653.544624,92.1826004 652.929042,92.1826004 C652.313017,92.1826004 651.777709,92.5873645 651.634901,93.1874094 L646.978121,112.704848 C646.883655,113.101179 646.97546,113.801971 647.228257,114.121966 C647.480167,114.440628 647.865127,114.909746 648.272263,114.909746 L652.431432,114.909746 L652.431432,118.016488 L645.330508,118.016488 C644.596068,118.016488 644,118.612095 644,119.347949 C644,120.082915 644.596068,120.679409 645.330508,120.679409 L799.225545,120.679409 C799.960429,120.679409 800.556054,120.082915 800.556054,119.347949 C800.556054,118.612095 799.960429,118.016488 799.225545,118.016488 L799.225545,118.016488 Z M649.957573,112.246825 L652.929042,99.7861285 L655.900955,112.246825 L649.957573,112.246825 L649.957573,112.246825 Z M793.021828,101.15132 L785.78874,101.15132 L788.224901,96.7131173 L793.021828,96.7131173 L793.021828,101.15132 L793.021828,101.15132 Z M793.021828,87.4106454 L793.021828,89.1681734 L792.365887,89.1681734 L793.021828,87.4106454 L793.021828,87.4106454 Z M793.021828,90.4996341 L793.021828,95.3816566 L788.955794,95.3816566 L791.635881,90.4996341 L793.021828,90.4996341 L793.021828,90.4996341 Z M785.919573,95.3816566 L781.084506,95.3816566 L778.405305,90.4996341 L788.598774,90.4996341 L785.919573,95.3816566 L785.919573,95.3816566 Z M785.188681,96.7131173 L783.50204,99.7861285 L781.815398,96.7131173 L785.188681,96.7131173 L785.188681,96.7131173 Z M778.048285,95.3816566 L767.352328,95.3816566 L770.032415,90.4996341 L775.368198,90.4996341 L778.048285,95.3816566 L778.048285,95.3816566 Z M759.48104,95.3816566 L756.801839,90.4996341 L766.995308,90.4996341 L764.316107,95.3816566 L759.48104,95.3816566 L759.48104,95.3816566 Z M763.585215,96.7131173 L761.898573,99.7861285 L760.211932,96.7131173 L763.585215,96.7131173 L763.585215,96.7131173 Z M738.16585,95.3816566 L735.485763,90.4996341 L745.680562,90.4996341 L743.001362,95.3816566 L738.16585,95.3816566 L738.16585,95.3816566 Z M742.270025,96.7131173 L740.583828,99.7861285 L738.896299,96.7131173 L742.270025,96.7131173 L742.270025,96.7131173 Z M730.931432,90.4996341 L732.449986,90.4996341 L735.130073,95.3816566 L730.931432,95.3816566 L730.931432,90.4996341 L730.931432,90.4996341 Z M748.717669,90.4996341 L753.764732,90.4996341 L756.444819,95.3816566 L746.037138,95.3816566 L748.717669,90.4996341 L748.717669,90.4996341 Z M751.241644,85.9012128 L753.034726,89.1681734 L749.447675,89.1681734 L751.241644,85.9012128 L751.241644,85.9012128 Z M770.762421,89.1681734 L772.700528,85.6384712 L774.638192,89.1681734 L770.762421,89.1681734 L770.762421,89.1681734 Z M767.726644,89.1681734 L756.070946,89.1681734 L753.148263,83.8423307 L770.650215,83.8423307 L767.726644,89.1681734 L767.726644,89.1681734 Z M746.411455,89.1681734 L734.75487,89.1681734 L731.831299,83.8423307 L749.335025,83.8423307 L746.411455,89.1681734 L746.411455,89.1681734 Z M731.71865,89.1681734 L730.931432,89.1681734 L730.931432,87.1496791 L731.71865,89.1681734 L731.71865,89.1681734 Z M730.931432,96.7131173 L735.860079,96.7131173 L738.29624,101.15132 L730.931432,101.15132 L730.931432,96.7131173 L730.931432,96.7131173 Z M745.306246,96.7131173 L757.175268,96.7131173 L759.611873,101.15132 L742.870528,101.15132 L745.306246,96.7131173 L745.306246,96.7131173 Z M766.621435,96.7131173 L778.778734,96.7131173 L781.215339,101.15132 L764.185718,101.15132 L766.621435,96.7131173 L766.621435,96.7131173 Z M792.253681,83.8423307 L789.33011,89.1681734 L777.674412,89.1681734 L774.751729,83.8423307 L792.253681,83.8423307 L792.253681,83.8423307 Z M740.688494,44.9619038 L740.688494,75.8535667 L730.044427,75.8535667 L730.044427,47.3194768 C730.044427,47.2551229 730.032452,47.195651 730.015599,47.1366229 L740.688494,44.9619038 L740.688494,44.9619038 Z M728.713918,75.8535667 L724.273568,75.8535667 C723.539127,75.8535667 722.948381,75.8766454 722.948381,76.6116116 L722.948381,109.583904 L718.513353,109.583904 L718.513353,49.4804375 L728.713918,47.4020274 L728.713918,75.8535667 L728.713918,75.8535667 Z M717.182845,109.583904 L707.869285,109.583904 L707.869285,106.033342 L712.299435,106.033342 C713.033876,106.033342 713.634822,104.86432 713.634822,104.128466 L713.634822,94.3644206 C713.634822,93.6294543 713.033876,93.6063757 712.299435,93.6063757 L707.869285,93.6063757 L707.869285,90.9434543 L712.299435,90.9434543 C713.033876,90.9434543 713.634822,89.7744319 713.634822,89.0385779 L713.634822,79.274533 C713.634822,78.5395667 713.033876,78.5164881 712.299435,78.5164881 L707.869285,78.5164881 L707.869285,75.8535667 L712.299435,75.8535667 C713.033876,75.8535667 713.634822,74.6845442 713.634822,73.9486903 L713.634822,64.1846454 C713.634822,63.4496791 713.033876,63.4266004 712.299435,63.4266004 L707.869285,63.4266004 L707.869285,57.9711622 C707.869285,57.3919768 707.425782,56.905106 706.98228,56.7213645 L706.98228,51.8304656 L717.182845,49.7516116 L717.182845,109.583904 L717.182845,109.583904 Z M669.728042,96.269297 L705.208268,96.269297 L705.208268,103.370421 L669.728042,103.370421 L669.728042,96.269297 Z M707.869285,96.269297 L710.973805,96.269297 L710.973805,103.370421 L707.869285,103.370421 L707.869285,96.269297 Z M669.728042,81.1794094 L705.208268,81.1794094 L705.208268,88.280533 L669.728042,88.280533 L669.728042,81.1794094 Z M707.869285,81.1794094 L710.973805,81.1794094 L710.973805,88.280533 L707.869285,88.280533 L707.869285,81.1794094 Z M669.728042,66.0895218 L705.208268,66.0895218 L705.208268,73.1906454 L669.728042,73.1906454 L669.728042,66.0895218 Z M707.869285,66.0895218 L710.973805,66.0895218 L710.973805,73.1906454 L707.869285,73.1906454 L707.869285,66.0895218 Z M687.90678,56.0028195 L705.651771,52.1016397 L705.651771,57.2131173 L687.888596,57.2131173 L687.90678,56.0028195 L687.90678,56.0028195 Z M669.728042,59.8760386 L686.320814,59.8760386 C686.382904,59.8760386 686.445438,59.8968982 686.509302,59.8986734 C686.589133,59.8986734 686.665415,59.8760386 686.740811,59.8760386 L705.208268,59.8760386 L705.208268,63.4266004 L669.728042,63.4266004 L669.728042,59.8760386 L669.728042,59.8760386 Z M663.962506,66.0895218 L667.067025,66.0895218 L667.067025,73.1906454 L663.962506,73.1906454 L663.962506,66.0895218 Z M669.728042,75.8535667 L705.208268,75.8535667 L705.208268,78.5164881 L669.728042,78.5164881 L669.728042,75.8535667 Z M663.962506,81.1794094 L667.067025,81.1794094 L667.067025,88.280533 L663.962506,88.280533 L663.962506,81.1794094 Z M669.728042,90.9434543 L705.208268,90.9434543 L705.208268,93.6063757 L669.728042,93.6063757 L669.728042,90.9434543 Z M663.962506,96.269297 L667.067025,96.269297 L667.067025,103.370421 L663.962506,103.370421 L663.962506,96.269297 Z M669.728042,106.033342 L672.389059,106.033342 L672.389059,118.016488 L669.728042,118.016488 L669.728042,106.033342 Z M673.719568,106.033342 L676.380585,106.033342 L676.380585,118.016488 L673.719568,118.016488 L673.719568,106.033342 Z M677.711093,106.033342 L680.37211,106.033342 L680.37211,118.016488 L677.711093,118.016488 L677.711093,106.033342 Z M681.702619,106.033342 L684.363636,106.033342 L684.363636,118.016488 L681.702619,118.016488 L681.702619,106.033342 Z M685.694144,106.033342 L705.208268,106.033342 L705.208268,118.016488 L685.694144,118.016488 L685.694144,106.033342 Z M707.869285,112.246825 L722.948381,112.246825 L722.948381,118.016488 L707.869285,118.016488 L707.869285,112.246825 Z M725.609398,78.5164881 L787.699794,78.5164881 L787.699794,80.1621734 C787.699794,80.3192858 787.726404,81.1794094 787.776076,81.1794094 L729.595602,81.1794094 C728.861161,81.1794094 728.270415,81.2024881 728.270415,81.9374543 L728.270415,101.909364 C728.270415,102.645218 728.861161,103.814241 729.595602,103.814241 L740.179353,103.814241 C740.308856,103.814241 740.443237,103.883477 740.583828,103.883477 C740.723975,103.883477 740.858356,103.814241 740.988302,103.814241 L761.494099,103.814241 C761.624045,103.814241 761.758427,103.883477 761.898573,103.883477 C762.039164,103.883477 762.173102,103.814241 762.303048,103.814241 L783.097565,103.814241 C783.227511,103.814241 783.361893,103.883477 783.50204,103.883477 C783.64263,103.883477 783.776568,103.814241 783.906514,103.814241 L787.699794,103.814241 L787.699794,107.364803 L752.06035,107.364803 C751.854121,107.364803 751.649667,107.126471 751.465169,107.21923 L731.013037,117.600628 C730.872446,117.670752 730.754918,118.016488 730.652469,118.016488 L725.609398,118.016488 L725.609398,78.5164881 L725.609398,78.5164881 Z M752.374794,110.027724 L757.541602,110.027724 L757.541602,118.016488 L736.417119,118.016488 L752.374794,110.027724 L752.374794,110.027724 Z M758.87211,110.027724 L766.411658,110.027724 L766.411658,118.016488 L758.87211,118.016488 L758.87211,110.027724 Z M767.742167,110.027724 L775.281715,110.027724 L775.281715,118.016488 L767.742167,118.016488 L767.742167,110.027724 Z M776.612223,110.027724 L783.708268,110.027724 L783.708268,118.016488 L776.612223,118.016488 L776.612223,110.027724 Z" id="Imported-Layers"></path>
                </g>
                <g id="left" transform="translate(0.000000, 98.000000)">
                    <polygon id="Path-512" fill="#E9E9E9" points="83 22 195 45 240 24"></polygon>
                    <polygon id="Path-512-Copy" fill="#FFFFFF" points="87 22 192 39 244 22"></polygon>
                    <polygon id="Path-513" fill="#F5F5F5" points="104 27 3 32 43 11"></polygon>
                    <polygon id="Path-515" fill="#E9E9E9" points="3 7 32 18 3 36"></polygon>
                    <path d="M1,17 C1,17 0.107421875,0 5,0 C10.7740885,0 33,17 33,17 L6,31 L1,17 Z" id="Path-515-Copy" fill="#FFFFFF"></path>
                </g>
                <g id="right" transform="translate(1301.000000, 120.500000) scale(-1, 1) translate(-1301.000000, -120.500000) translate(1179.000000, 98.000000)">
                    <polygon id="Path-512" fill="#E9E9E9" points="83 22 195 45 240 24"></polygon>
                    <polygon id="Path-512-Copy" fill="#FFFFFF" points="87 22 192 39 244 22"></polygon>
                    <polygon id="Path-513" fill="#F5F5F5" points="104 27 3 32 43 11"></polygon>
                    <polygon id="Path-515" fill="#E9E9E9" points="3 7 32 18 3 36"></polygon>
                    <path d="M1,17 C1,17 0.107421875,0 5,0 C10.7740885,0 33,17 33,17 L6,31 L1,17 Z" id="Path-515-Copy" fill="#FFFFFF"></path>
                </g>
            </g>
        </g>
    </g>
</svg>