<svg width="1319" height="71" xmlns="http://www.w3.org/2000/svg"><g fill="none" fill-rule="evenodd"><path fill="#000" style="mix-blend-mode:overlay" opacity=".161" d="M0 0l179 47L282-4.5 308-56-42-44z"/><path d="M0 0l165 27L273 0l61-28-26-28-350 12L0 0z" fill="#F5F5F5"/><path fill="#000" style="mix-blend-mode:overlay" opacity=".161" d="M366 0l184 71 61-97-275-1z"/><path fill="#F5F5F5" d="M366 0l182 54 55-64-245-32z"/><path fill="#000" style="mix-blend-mode:overlay" opacity=".161" d="M1261-5l59 32 1-46z"/><path fill="#F5F5F5" d="M1261-2.5l59 16.5 1-33z"/><path fill="#000" style="mix-blend-mode:overlay" opacity=".161" d="M902-66L842-1l60 53 184-81z"/><path fill="#F5F5F5" d="M902-66L842-1l60 28 184-56z"/></g></svg>