<svg width="1262" height="102" xmlns="http://www.w3.org/2000/svg"><g fill="none" fill-rule="evenodd"><path fill="#000" style="mix-blend-mode:overlay" opacity=".161" d="M1 71l179-47 103 51.5 26 51.5-350-12z"/><path d="M1 71l165-27 108 27 61 28-26 28-350-12L1 71z" fill="#FFF"/><path fill="#000" style="mix-blend-mode:overlay" opacity=".161" d="M367 71L551 0l61 97-275 1z"/><path fill="#FFF" d="M367 71l182-54 55 64-245 32z"/><path fill="#000" style="mix-blend-mode:overlay" opacity=".161" d="M1202 76l59-32 1 46z"/><path fill="#FFF" d="M1202 73.5l59-16.5 1 33z"/><path fill="#000" style="mix-blend-mode:overlay" opacity=".161" d="M903 137l-60-65 60-53 184 81z"/><path fill="#FFF" d="M903 137l-60-65 60-28 184 56z"/></g></svg>