<?xml version="1.0" encoding="UTF-8"?>
<svg width="1262px" height="102px" viewBox="0 0 1262 102" version="1.1" xmlns="http://www.w3.org/2000/svg" xmlns:xlink="http://www.w3.org/1999/xlink">
    <!-- Generator: Sketch 49 (51002) - http://www.bohemiancoding.com/sketch -->
    <title>Group</title>
    <desc>Created with Sketch.</desc>
    <defs></defs>
    <g id="Design---desktop" stroke="none" stroke-width="1" fill="none" fill-rule="evenodd">
        <g id="homepage" transform="translate(-174.000000, -865.000000)">
            <g id="Masthead-bg-(darker)">
                <g id="Group" transform="translate(133.000000, 865.000000)">
                    <polygon id="Path-502" fill="#000000" style="mix-blend-mode: overlay;" opacity="0.161089086" points="42 71 221 24 324 75.5 350 127 0 115"></polygon>
                    <path d="M42,71 L207,44 L315,71 L376,99 L350,127 L0,115 L42,71 Z" id="Path-502-Copy" fill="#FFFFFF"></path>
                    <polygon id="Path-503-Copy" fill="#000000" style="mix-blend-mode: overlay;" opacity="0.161089086" points="408 71 592 0 653 97 378 98"></polygon>
                    <polygon id="Path-503" fill="#FFFFFF" points="408 71 590 17 645 81 400 113"></polygon>
                    <polygon id="Path-504" fill="#000000" style="mix-blend-mode: overlay;" opacity="0.161089086" points="1243 76 1302 44 1303 90"></polygon>
                    <polygon id="Path-504-Copy" fill="#FFFFFF" points="1243 73.5 1302 57 1303 90"></polygon>
                    <polygon id="Path-505" fill="#000000" style="mix-blend-mode: overlay;" opacity="0.161089086" points="944 137 884 72 944 19 1128 100"></polygon>
                    <polygon id="Path-505-Copy" fill="#FFFFFF" points="944 137 884 72 944 44 1128 100"></polygon>
                </g>
            </g>
        </g>
    </g>
</svg>