<svg width="185" height="58" xmlns="http://www.w3.org/2000/svg"><g fill="none" fill-rule="evenodd"><path fill="#464646" d="M160.875 22.24l8.159-10.313-.117-11.78 15.84 19.273-23.882 2.82"/><path fill="#B30086" d="M163.695 12.276l12.042-2.326 4.455-9.818 2.867 18.442-19.364-6.298"/><path fill="#424242" d="M5.085 15.27v10.977H.443V.2h4.642v10.828h12.604V.2h4.641v26.047h-4.64V15.27H5.085m46.225-.298c0 7.778-4.453 11.684-11.359 11.684-6.868 0-11.246-3.906-11.246-11.46V.2h4.642v14.81c0 4.837 2.528 7.442 6.68 7.442 4.113 0 6.641-2.456 6.641-7.256V.2h4.642v14.772M76.138.2h4.566v26.047h-3.887L62.25 7.717v18.53h-4.567V.2h4.303l14.15 18.01V.2m22.528 26.047h-4.68V4.442h-8.377V.2h21.435v4.242h-8.378v21.805m17.923-21.954v6.773h13.245v4.092h-13.245v6.996h15.132v4.093h-19.774V.2h19.586v4.093zm37.583 21.954l-6.49-9.079h-5.812v9.08h-4.641V.2H149c6.076 0 9.812 3.163 9.812 8.26 0 4.317-2.604 6.922-6.302 7.927l7.132 9.86h-5.471zm-5.546-21.88h-6.756v8.745h6.793c3.321 0 5.434-1.712 5.434-4.391 0-2.865-2.037-4.354-5.471-4.354zM10.292 57.253H.442V31.206h9.85c8.302 0 14.038 5.619 14.038 12.987 0 7.367-5.736 13.06-14.038 13.06zm0-21.88H5.085v17.713h5.207c5.548 0 9.17-3.684 9.17-8.82 0-5.134-3.622-8.893-9.17-8.893zm42.075 10.605c0 7.777-4.454 11.685-11.36 11.685-6.867 0-11.245-3.908-11.245-11.461V31.206h4.642v14.81c0 4.837 2.528 7.442 6.68 7.442 4.113 0 6.64-2.456 6.64-7.256V31.206h4.643v14.772M77.42 31.206h4.567v26.047H78.1l-14.566-18.53v18.53h-4.567V31.206h4.302l14.152 18.01v-18.01m30.035 0h4.566v26.047h-3.886l-14.567-18.53v18.53h-4.566V31.206h4.302l14.151 18.01v-18.01m11.847 0h4.642v26.047h-4.642zm30.377 0h4.566v26.047h-3.888l-14.565-18.53v18.53h-4.566V31.206h4.301l14.152 18.01v-18.01M173.79 57.7c-8.264 0-13.698-5.805-13.698-13.433 0-7.33 5.66-13.507 13.623-13.507 4.604 0 7.434 1.265 10.152 3.534l-2.944 3.461c-2.038-1.711-4.038-2.79-7.397-2.79-4.868 0-8.566 4.167-8.566 9.228 0 5.395 3.585 9.34 8.982 9.34 2.49 0 4.755-.782 6.377-1.973v-4.875h-6.754v-3.98h11.245v10.94c-2.603 2.194-6.34 4.055-11.02 4.055"/></g></svg>