<?xml version="1.0" encoding="UTF-8"?>
<svg width="185px" height="58px" viewBox="0 0 185 58" version="1.1" xmlns="http://www.w3.org/2000/svg" xmlns:xlink="http://www.w3.org/1999/xlink">
    <!-- Generator: Sketch 48.2 (47327) - http://www.bohemiancoding.com/sketch -->
    <title>Logo</title>
    <desc>Created with Sketch.</desc>
    <defs></defs>
    <g id="homepage" stroke="none" stroke-width="1" fill="none" fill-rule="evenodd" transform="translate(-70.000000, -70.000000)">
        <g id="hero/masthead-fade">
            <g id="Logo" transform="translate(70.000000, 70.000000)">
                <polyline id="Fill-1" fill="#464646" points="160.875057 22.240175 169.033924 11.9265051 168.91653 0.147795851 184.756303 19.4196514 160.875057 22.240175"></polyline>
                <polyline id="Fill-2" fill="#B30086" points="163.694603 12.2763575 175.736898 9.95038152 180.191572 0.131776021 183.05881 18.573701 163.694603 12.2763575"></polyline>
                <polyline id="Fill-3" fill="#424242" points="5.08461756 15.2699986 5.08461756 26.2471996 0.442847025 26.2471996 0.442847025 0.199989491 5.08461756 0.199989491 5.08461756 11.0278443 17.6887252 11.0278443 17.6887252 0.199989491 22.3304958 0.199989491 22.3304958 26.2471996 17.6887252 26.2471996 17.6887252 15.2699986 5.08461756 15.2699986"></polyline>
                <path d="M51.3099858,14.9723399 C51.3099858,22.7497089 46.8568839,26.6564804 39.9510907,26.6564804 C33.0830312,26.6564804 28.7053966,22.7497089 28.7053966,15.1955839 L28.7053966,0.199989491 L33.3471671,0.199989491 L33.3471671,15.0095472 C33.3471671,19.8470191 35.8753258,22.4515334 40.0265581,22.4515334 C44.1400567,22.4515334 46.6682153,19.9958485 46.6682153,15.1955839 L46.6682153,0.199989491 L51.3099858,0.199989491 L51.3099858,14.9723399" id="Fill-4" fill="#424242"></path>
                <polyline id="Fill-5" fill="#424242" points="76.1377195 0.199989491 80.7040227 0.199989491 80.7040227 26.2471996 76.8169263 26.2471996 62.2506657 7.71639039 62.2506657 26.2471996 57.6843626 26.2471996 57.6843626 0.199989491 61.9865297 0.199989491 76.1377195 18.2098958 76.1377195 0.199989491"></polyline>
                <polyline id="Fill-6" fill="#424242" points="98.6636969 26.2471996 93.9847167 26.2471996 93.9847167 4.44162707 85.6067847 4.44162707 85.6067847 0.199989491 107.041629 0.199989491 107.041629 4.44162707 98.6636969 4.44162707 98.6636969 26.2471996"></polyline>
                <polygon id="Fill-7" fill="#424242" points="116.586686 4.29279768 116.586686 11.0655684 129.832266 11.0655684 129.832266 15.1583766 116.586686 15.1583766 116.586686 22.1538746 131.718952 22.1538746 131.718952 26.2471996 111.944915 26.2471996 111.944915 0.199989491 131.530807 0.199989491 131.530807 4.29279768"></polygon>
                <path d="M154.17051,26.2471996 L147.679788,17.1680901 L141.867748,17.1680901 L141.867748,26.2471996 L137.227025,26.2471996 L137.227025,0.199989491 L149.000467,0.199989491 C155.076119,0.199989491 158.81228,3.362614 158.81228,8.46053733 C158.81228,12.7771064 156.20813,15.3816207 152.510227,16.3867358 L159.642422,26.2471996 L154.17051,26.2471996 L154.17051,26.2471996 Z M148.623654,4.36721237 L141.867748,4.36721237 L141.867748,13.1119725 L148.661388,13.1119725 C151.981955,13.1119725 154.094518,11.4004345 154.094518,8.72098876 C154.094518,5.85602303 152.057946,4.36721237 148.623654,4.36721237 L148.623654,4.36721237 Z" id="Fill-8" fill="#424242"></path>
                <path d="M10.2923938,57.2533222 L0.442847025,57.2533222 L0.442847025,31.2061121 L10.2923938,31.2061121 C18.5943343,31.2061121 24.3303824,36.8249383 24.3303824,44.1925098 C24.3303824,51.5600813 18.5943343,57.2533222 10.2923938,57.2533222 L10.2923938,57.2533222 Z M10.2923938,35.373335 L5.08461756,35.373335 L5.08461756,53.0855826 L10.2923938,53.0855826 C15.8397734,53.0855826 19.4622096,49.4020552 19.4622096,44.2669245 C19.4622096,39.1317938 15.8397734,35.373335 10.2923938,35.373335 L10.2923938,35.373335 Z" id="Fill-9" fill="#424242"></path>
                <path d="M52.3665297,45.9784625 C52.3665297,53.7553148 47.9134278,57.662603 41.0076346,57.662603 C34.1395751,57.662603 29.7619405,53.7553148 29.7619405,46.2017066 L29.7619405,31.2061121 L34.403711,31.2061121 L34.403711,46.0156698 C34.403711,50.8531417 36.9318697,53.457656 41.083102,53.457656 C45.1966006,53.457656 47.7247592,51.0019711 47.7247592,46.2017066 L47.7247592,31.2061121 L52.3665297,31.2061121 L52.3665297,45.9784625" id="Fill-10" fill="#424242"></path>
                <polyline id="Fill-11" fill="#424242" points="77.4206657 31.2061121 81.9869688 31.2061121 81.9869688 57.2533222 78.0998725 57.2533222 63.5336119 38.722513 63.5336119 57.2533222 58.9673088 57.2533222 58.9673088 31.2061121 63.2694759 31.2061121 77.4206657 49.2160185 77.4206657 31.2061121"></polyline>
                <polyline id="Fill-12" fill="#424242" points="107.456176 31.2061121 112.022479 31.2061121 112.022479 57.2533222 108.135907 57.2533222 93.5691218 38.722513 93.5691218 57.2533222 89.0028187 57.2533222 89.0028187 31.2061121 93.3049858 31.2061121 107.456176 49.2160185 107.456176 31.2061121"></polyline>
                <polygon id="Fill-13" fill="#424242" points="119.302989 31.2061121 123.944759 31.2061121 123.944759 57.2533222 119.302989 57.2533222"></polygon>
                <polyline id="Fill-14" fill="#424242" points="149.680198 31.2061121 154.245977 31.2061121 154.245977 57.2533222 150.358357 57.2533222 135.79262 38.722513 135.79262 57.2533222 131.226841 57.2533222 131.226841 31.2061121 135.528484 31.2061121 149.680198 49.2160185 149.680198 31.2061121"></polyline>
                <path d="M173.790467,57.6998104 C165.526261,57.6998104 160.092082,51.8949475 160.092082,44.2669245 C160.092082,36.9365604 165.752139,30.759624 173.715,30.759624 C178.319037,30.759624 181.149065,32.0246738 183.866941,34.2943219 L180.923187,37.755122 C178.885042,36.043584 176.885156,34.9640542 173.526331,34.9640542 C168.658159,34.9640542 164.960255,39.1317938 164.960255,44.1925098 C164.960255,49.5880919 168.545482,53.5320707 173.941926,53.5320707 C176.432351,53.5320707 178.696898,52.7507164 180.318924,51.5600813 L180.318924,46.6854021 L173.564589,46.6854021 L173.564589,42.7042159 L184.809759,42.7042159 L184.809759,53.6442095 C182.206657,55.839443 178.470496,57.6998104 173.790467,57.6998104" id="Fill-15" fill="#424242"></path>
            </g>
        </g>
    </g>
</svg>