<svg width="23" height="24" xmlns="http://www.w3.org/2000/svg"><path d="M22.337 19.797l-5.424-5.425a8.858 8.858 0 0 0 1.289-4.61c0-4.906-4.252-9.156-9.155-9.156A8.883 8.883 0 0 0 .165 9.49c0 4.905 4.252 9.154 9.154 9.154a8.85 8.85 0 0 0 4.472-1.208l5.455 5.455c.534.533 1.4.533 1.933 0l1.354-1.353c.53-.535.338-1.206-.196-1.74zM2.896 9.487a6.149 6.149 0 0 1 6.148-6.149c3.397 0 6.423 3.026 6.423 6.423a6.148 6.148 0 0 1-6.15 6.148c-3.395 0-6.421-3.026-6.421-6.422z" fill="#FFF" fill-rule="evenodd"/></svg>